<svg width="215" height="63" viewBox="0 0 215 63" fill="none" xmlns="http://www.w3.org/2000/svg">
<path d="M2.29545 46V22.7273H11.0227C12.8106 22.7273 14.3106 23.0379 15.5227 23.6591C16.7424 24.2803 17.6629 25.1515 18.2841 26.2727C18.9129 27.3864 19.2273 28.6856 19.2273 30.1705C19.2273 31.6629 18.9091 32.9583 18.2727 34.0568C17.6439 35.1477 16.7159 35.9924 15.4886 36.5909C14.2614 37.1818 12.7538 37.4773 10.9659 37.4773H4.75V33.9773H10.3977C11.4432 33.9773 12.2992 33.8333 12.9659 33.5455C13.6326 33.25 14.125 32.822 14.4432 32.2614C14.7689 31.6932 14.9318 30.9962 14.9318 30.1705C14.9318 29.3447 14.7689 28.6402 14.4432 28.0568C14.1174 27.4659 13.6212 27.0189 12.9545 26.7159C12.2879 26.4053 11.428 26.25 10.375 26.25H6.51136V46H2.29545ZM14.3182 35.4545L20.0795 46H15.375L9.71591 35.4545H14.3182ZM30.4034 46.3409C28.6534 46.3409 27.142 45.9773 25.8693 45.25C24.6042 44.5152 23.6307 43.4773 22.9489 42.1364C22.267 40.7879 21.9261 39.2008 21.9261 37.375C21.9261 35.5795 22.267 34.0038 22.9489 32.6477C23.6383 31.2841 24.6004 30.2235 25.8352 29.4659C27.0701 28.7008 28.5208 28.3182 30.1875 28.3182C31.2633 28.3182 32.2784 28.4924 33.233 28.8409C34.1951 29.1818 35.0436 29.7121 35.7784 30.4318C36.5208 31.1515 37.1042 32.0682 37.5284 33.1818C37.9527 34.2879 38.1648 35.6061 38.1648 37.1364V38.3977H23.858V35.625H34.2216C34.214 34.8371 34.0436 34.1364 33.7102 33.5227C33.3769 32.9015 32.911 32.4129 32.3125 32.0568C31.7216 31.7008 31.0322 31.5227 30.2443 31.5227C29.4034 31.5227 28.6648 31.7273 28.0284 32.1364C27.392 32.5379 26.8958 33.0682 26.5398 33.7273C26.1913 34.3788 26.0133 35.0947 26.0057 35.875V38.2955C26.0057 39.3106 26.1913 40.1818 26.5625 40.9091C26.9337 41.6288 27.4527 42.1818 28.1193 42.5682C28.786 42.947 29.5663 43.1364 30.4602 43.1364C31.0587 43.1364 31.6004 43.053 32.0852 42.8864C32.5701 42.7121 32.9905 42.4583 33.3466 42.125C33.7027 41.7917 33.9716 41.3788 34.1534 40.8864L37.9943 41.3182C37.7519 42.3333 37.2898 43.2197 36.608 43.9773C35.9337 44.7273 35.0701 45.3106 34.017 45.7273C32.964 46.1364 31.7595 46.3409 30.4034 46.3409ZM55.4403 33.1591L51.6903 33.5682C51.5843 33.1894 51.3987 32.8333 51.1335 32.5C50.8759 32.1667 50.5275 31.8977 50.0881 31.6932C49.6487 31.4886 49.1108 31.3864 48.4744 31.3864C47.6184 31.3864 46.8987 31.572 46.3153 31.9432C45.7396 32.3144 45.4555 32.7955 45.4631 33.3864C45.4555 33.8939 45.6411 34.3068 46.0199 34.625C46.4063 34.9432 47.0426 35.2045 47.929 35.4091L50.9062 36.0455C52.5578 36.4015 53.785 36.9659 54.5881 37.7386C55.3987 38.5114 55.8078 39.5227 55.8153 40.7727C55.8078 41.8712 55.4858 42.8409 54.8494 43.6818C54.2206 44.5152 53.3456 45.1667 52.2244 45.6364C51.1032 46.1061 49.8153 46.3409 48.3608 46.3409C46.2244 46.3409 44.5047 45.8939 43.2017 45C41.8987 44.0985 41.1222 42.8447 40.8722 41.2386L44.8835 40.8523C45.0653 41.6402 45.4517 42.2348 46.0426 42.6364C46.6335 43.0379 47.4025 43.2386 48.3494 43.2386C49.3267 43.2386 50.1108 43.0379 50.7017 42.6364C51.3002 42.2348 51.5994 41.7386 51.5994 41.1477C51.5994 40.6477 51.4063 40.2348 51.0199 39.9091C50.6411 39.5833 50.0502 39.3333 49.2472 39.1591L46.2699 38.5341C44.5956 38.1856 43.357 37.5985 42.554 36.7727C41.7509 35.9394 41.3532 34.8864 41.3608 33.6136C41.3532 32.5379 41.6449 31.6061 42.2358 30.8182C42.8343 30.0227 43.6638 29.4091 44.7244 28.9773C45.7926 28.5379 47.0237 28.3182 48.4176 28.3182C50.4631 28.3182 52.0729 28.7538 53.2472 29.625C54.429 30.4962 55.16 31.6742 55.4403 33.1591ZM70.3324 38.6591V28.5455H74.446V46H70.4574V42.8977H70.2756C69.8816 43.875 69.2339 44.6742 68.3324 45.2955C67.4384 45.9167 66.3362 46.2273 65.0256 46.2273C63.8816 46.2273 62.8703 45.9735 61.9915 45.4659C61.1203 44.9508 60.4384 44.2045 59.946 43.2273C59.4536 42.2424 59.2074 41.053 59.2074 39.6591V28.5455H63.321V39.0227C63.321 40.1288 63.6241 41.0076 64.2301 41.6591C64.8362 42.3106 65.6316 42.6364 66.6165 42.6364C67.2225 42.6364 67.8097 42.4886 68.3778 42.1932C68.946 41.8977 69.4119 41.4583 69.7756 40.875C70.1468 40.2841 70.3324 39.5455 70.3324 38.6591ZM78.6761 46V28.5455H82.608V31.5114H82.8125C83.1761 30.5114 83.7784 29.7311 84.6193 29.1705C85.4602 28.6023 86.464 28.3182 87.6307 28.3182C88.8125 28.3182 89.8087 28.6061 90.6193 29.1818C91.4375 29.75 92.0133 30.5265 92.3466 31.5114H92.5284C92.9148 30.5417 93.5663 29.7689 94.483 29.1932C95.4072 28.6098 96.5019 28.3182 97.767 28.3182C99.3731 28.3182 100.684 28.8258 101.699 29.8409C102.714 30.8561 103.222 32.3371 103.222 34.2841V46H99.0966V34.9205C99.0966 33.8371 98.8087 33.0455 98.233 32.5455C97.6572 32.0379 96.9527 31.7841 96.1193 31.7841C95.1269 31.7841 94.3504 32.0947 93.7898 32.7159C93.2367 33.3295 92.9602 34.1288 92.9602 35.1136V46H88.9261V34.75C88.9261 33.8485 88.6534 33.1288 88.108 32.5909C87.5701 32.053 86.8655 31.7841 85.9943 31.7841C85.4034 31.7841 84.8655 31.9356 84.3807 32.2386C83.8958 32.5341 83.5095 32.9545 83.2216 33.5C82.9337 34.0379 82.7898 34.6667 82.7898 35.3864V46H78.6761ZM115.122 46.3409C113.372 46.3409 111.861 45.9773 110.588 45.25C109.323 44.5152 108.349 43.4773 107.668 42.1364C106.986 40.7879 106.645 39.2008 106.645 37.375C106.645 35.5795 106.986 34.0038 107.668 32.6477C108.357 31.2841 109.319 30.2235 110.554 29.4659C111.789 28.7008 113.24 28.3182 114.906 28.3182C115.982 28.3182 116.997 28.4924 117.952 28.8409C118.914 29.1818 119.762 29.7121 120.497 30.4318C121.24 31.1515 121.823 32.0682 122.247 33.1818C122.671 34.2879 122.884 35.6061 122.884 37.1364V38.3977H108.577V35.625H118.94C118.933 34.8371 118.762 34.1364 118.429 33.5227C118.096 32.9015 117.63 32.4129 117.031 32.0568C116.44 31.7008 115.751 31.5227 114.963 31.5227C114.122 31.5227 113.384 31.7273 112.747 32.1364C112.111 32.5379 111.615 33.0682 111.259 33.7273C110.91 34.3788 110.732 35.0947 110.724 35.875V38.2955C110.724 39.3106 110.91 40.1818 111.281 40.9091C111.652 41.6288 112.171 42.1818 112.838 42.5682C113.505 42.947 114.285 43.1364 115.179 43.1364C115.777 43.1364 116.319 43.053 116.804 42.8864C117.289 42.7121 117.709 42.4583 118.065 42.125C118.421 41.7917 118.69 41.3788 118.872 40.8864L122.713 41.3182C122.471 42.3333 122.009 43.2197 121.327 43.9773C120.652 44.7273 119.789 45.3106 118.736 45.7273C117.683 46.1364 116.478 46.3409 115.122 46.3409ZM128.898 46.25C128.208 46.25 127.617 46.0076 127.125 45.5227C126.633 45.0379 126.39 44.447 126.398 43.75C126.39 43.0682 126.633 42.4848 127.125 42C127.617 41.5152 128.208 41.2727 128.898 41.2727C129.564 41.2727 130.144 41.5152 130.636 42C131.136 42.4848 131.39 43.0682 131.398 43.75C131.39 44.2121 131.269 44.6326 131.034 45.0114C130.807 45.3902 130.504 45.6932 130.125 45.9205C129.754 46.1402 129.345 46.25 128.898 46.25Z" fill="white"/>
<rect x="159.595" width="34.0006" height="44.8248" fill="#D9D9D9"/>
<path d="M154.556 3.50214L175.822 47.6266H133.29L154.556 3.50214Z" fill="#324327"/>
<path d="M163.057 3.50214L178.598 47.6266H147.516L163.057 3.50214Z" fill="#B4C3AB"/>
<path d="M197.056 3.50214L212.596 47.6266H181.515L197.056 3.50214Z" fill="#AED2BE"/>
<path d="M187.298 12.3969L204.202 47.5913H170.394L187.298 12.3969Z" fill="#708662"/>
</svg>
