<svg width="177" height="110" viewBox="0 0 177 110" fill="none" xmlns="http://www.w3.org/2000/svg">
<path d="M170.601 104.404C171.868 106.03 173.052 107.547 174.561 109.48C170.544 109.48 167.085 109.544 163.633 109.442C162.565 109.411 162.225 108.353 161.691 107.686C152.698 96.4626 143.75 85.2124 134.75 73.9926C118.88 54.2104 102.984 34.4437 87.0853 14.6784C86.6649 14.1559 86.3456 13.5215 85.3137 13.1569C83.7299 14.9675 82.0709 16.7859 80.5084 18.6622C62.6945 40.053 44.894 61.4517 27.0931 82.8503C22.0365 88.9288 16.9557 94.9933 11.9697 101.113C11.0142 102.286 9.94513 102.766 8.30917 102.699C6.24246 102.615 4.16742 102.679 1.36914 102.679C30.0385 68.242 58.3169 34.2745 86.851 0C114.954 35.0316 142.737 69.6636 170.601 104.404Z" fill="black"/>
<path d="M87.711 45.0571C102.911 64.1441 118.027 83.1237 133.094 102.041C132.865 102.314 132.794 102.485 132.707 102.491C127.882 102.831 123.048 102.621 118.218 102.614C116.987 102.612 116.481 101.702 115.896 100.976C106.348 89.1368 96.8098 77.292 87.2654 65.451C86.9551 65.066 86.6008 64.7066 86.3121 64.3853C85.5744 64.3715 85.3855 64.8122 85.1184 65.1324C75.1892 77.0374 65.2432 88.9324 55.3812 100.877C54.2903 102.199 53.1563 102.902 51.2436 102.706C49.7283 102.55 48.1701 102.894 46.5906 102.496C46.4135 101.258 47.4735 100.514 48.1535 99.6889C56.4359 89.6412 64.7612 79.619 73.0757 69.5904C73.2372 69.3956 73.4059 69.2051 73.5659 69.0094C76.0215 66.0049 76.0123 65.9179 72.9223 63.0439C72.113 63.2372 71.7843 63.8698 71.3585 64.3826C61.2579 76.5478 51.1531 88.7105 41.1059 100.907C40.0761 102.158 38.947 102.843 37.1214 102.697C35.5329 102.571 33.9112 102.916 31.7217 102.385C48.763 81.4075 66.0984 60.8711 83.3627 39.9742C85.2474 41.6345 86.2784 43.396 87.711 45.0571Z" fill="black"/>
<path d="M54.0921 57.7149C64.493 45.2202 74.8038 32.8289 85.4809 19.9974C109.364 49.8576 132.998 79.4062 156.761 109.117C154.723 109.859 152.953 109.301 151.298 109.559C146.84 110.253 144.298 108.549 141.822 105.419C124.268 83.227 106.468 61.1745 88.7396 39.0817C87.1299 37.0758 85.4697 35.0992 83.8716 33.156C82.6853 33.3488 82.3851 34.1045 81.9291 34.6498C66.9087 52.6122 51.9116 70.5887 36.915 88.5655C33.4701 92.6951 30.0062 96.8138 26.6235 100.98C25.6015 102.239 24.3806 102.838 22.5756 102.708C20.9861 102.593 19.3699 102.896 17.1426 102.476C29.3708 87.3373 41.7477 72.6137 54.0921 57.7149Z" fill="black"/>
<path d="M67.6332 93.5107C73.6848 86.1369 79.6488 78.8681 85.9892 71.1406C94.3792 81.6507 102.513 91.8393 110.94 102.396C93.9232 102.396 77.407 102.396 60.3887 102.396C62.9528 99.2504 65.2492 96.4332 67.6332 93.5107Z" fill="black"/>
<path d="M27.6293 32.358C25.4496 32.6129 23.4641 32.8606 21.269 33.1344C26.5675 27.2835 38.8921 28.0146 43.9565 33.3C38.3793 32.2894 33.1112 32.1357 27.6293 32.358Z" fill="black"/>
<path d="M169.092 53.0036C171.961 53.6948 174.349 54.7878 176.31 56.6575C169.022 55.7491 161.795 55.5098 154.526 56.5851C158.621 53.2251 163.295 51.6987 169.092 53.0036Z" fill="black"/>
<path d="M50.2657 6.72782C54.8015 6.67823 58.0993 8.45341 60.9602 11.1622C54.4672 10.139 48.0149 10.1452 41.4893 10.9901C43.8255 8.71842 46.507 7.07812 50.2657 6.72782Z" fill="black"/>
<path d="M119.036 8.80137C125.18 4.79927 132.049 7.48049 135.695 11.3518C129.012 10.2712 122.75 10.0795 116.139 11.3759C116.855 9.87553 118.114 9.57391 119.036 8.80137Z" fill="black"/>
<path d="M17.6642 56.6153C14.6936 56.0351 11.8485 55.9234 8.97921 55.9186C6.12576 55.9138 3.36499 56.5661 0 56.8244C2.88894 54.1184 5.85907 52.3388 9.74026 52.3436C13.8208 52.3486 17.1033 54.0215 19.8917 56.6029C19.0241 57.0454 18.4413 56.6161 17.6642 56.6153Z" fill="black"/>
<path d="M147.979 29.8482C149.884 30.8144 151.77 31.5838 153.387 33.4014C149.766 33.1213 146.74 32.3718 143.617 32.3414C140.467 32.3106 137.423 33.018 134.172 33.3975C136.871 29.6891 142.915 27.6621 147.979 29.8482Z" fill="black"/>
</svg>
